<svg aria-hidden="true" style="position:absolute;width:0;height:0" xmlns="http://www.w3.org/2000/svg" overflow="hidden"><defs><symbol id="icon-arrow" viewBox="0 0 53 32"><path fill="var(--color1, #ff7b00)" d="M23.081 20.356L26.19 8.051 44.874.055 41.063 11.8l11.154 5.07-18.294 8.587-10.843-5.102z"/><path fill="var(--color2, #ff9557)" d="M2.267 31.37a2.42 2.42 0 01-1.395-1.293l-.006-.015a2.44 2.44 0 011.213-3.213l.015-.006L42.76 8.642c1.228-.544 2.676 0 3.22 1.228.544 1.229 0 2.677-1.228 3.221L4.087 31.292a2.398 2.398 0 01-1.837.072l.017.005z"/></symbol><symbol id="icon-award" viewBox="0 0 37 32"><path fill="var(--color3, #eaeaea)" d="M31.283 14.903h4.947a.672.672 0 00-.485-.505l-.005-.001a.646.646 0 00.019-.171v-.001a.7.7 0 00-.7-.7h-.001a.735.735 0 00-.307.07.947.947 0 00-.859-.556h-.002a.944.944 0 00-.883.612l-.002.007a.709.709 0 00-.398-.121h-.006a.737.737 0 00-.735.735c0 .035.004.07.008.105a.67.67 0 00-.59.52l-.001.004zM2.291 16.906h5.227a.707.707 0 00-.517-.533.74.74 0 00-1.043-.847l.004-.002a1 1 0 00-.91-.587h-.001a.998.998 0 00-.934.647l-.002.007a.757.757 0 00-.423-.128h-.006a.777.777 0 00-.769.891l-.001-.004a.716.716 0 00-.626.556zm28.354-14.02h6.226a.846.846 0 00-.612-.633l-.006-.001a.94.94 0 00.027-.213v-.001-.001a.878.878 0 00-.878-.878h-.001a.855.855 0 00-.385.089 1.188 1.188 0 00-2.195.069l-.003.008a.891.891 0 00-.5-.151h-.006a.928.928 0 00-.926.926c0 .043.004.089.008.132a.832.832 0 00-.749.648l-.001.006zM0 6.012h5.67a.766.766 0 00-.559-.578l-.005-.001a.84.84 0 00.023-.195v-.001a.8.8 0 00-.8-.8h-.001a.755.755 0 00-.35.082 1.081 1.081 0 00-1.996.066l-.002.007a.844.844 0 00-.461-.136h-.002-.001a.842.842 0 00-.843.843V5.3c0 .039.004.082.008.121a.755.755 0 00-.68.586L0 6.012zM.552 30.49h4.352a.59.59 0 00-.428-.442l-.004-.001a.616.616 0 00-.594-.766.614.614 0 00-.268.062.832.832 0 00-.756-.486h-.002-.001a.827.827 0 00-.775.539l-.002.006a.634.634 0 00-.351-.105h-.004a.644.644 0 00-.644.644v.002a.73.73 0 00.008.093.59.59 0 00-.528.451l-.001.004zM12.289 2.073h5.518a.753.753 0 00-.543-.563l-.005-.001a.778.778 0 00-.754-.969h-.001a.783.783 0 00-.342.078 1.053 1.053 0 00-1.946.062l-.002.007a.805.805 0 00-.45-.136h-.001-.001a.82.82 0 00-.812.942l-.001-.004a.743.743 0 00-.661.583zm20.53 27.122h4.352a.591.591 0 00-.427-.442l-.004-.001a.615.615 0 00-.595-.766.614.614 0 00-.268.062.832.832 0 00-.756-.486h-.003a.83.83 0 00-.776.539l-.002.006a.635.635 0 00-.352-.105h-.002-.001a.644.644 0 00-.644.644v.001a.73.73 0 00.008.093.576.576 0 00-.528.451l-.001.004z"/><path fill="var(--color4, #d67412)" d="M19.083 30.525c-.33.214-.801.214-1.132 0l-8.673-5.608c-.653-.42-.276-1.26.564-1.26h17.345c.84 0 1.217.836.564 1.26l-8.669 5.608z"/><path fill="var(--color5, #fc842c)" d="M16.054 30.373c-.062.074-.159.074-.222 0l-1.913-2.302-1.758-2.108c-.097-.121-.031-.323.109-.323h7.358c.14 0 .21.206.109.323l-1.758 2.108-1.925 2.302z"/><path fill="var(--color5, #fc842c)" d="M20.818 30.521a.149.149 0 01-.241 0l-2.116-2.536-1.937-2.326c-.109-.132-.031-.358.121-.358h8.105c.156 0 .23.226.121.358l-1.937 2.326-2.116 2.536z"/><path fill="var(--color5, #fc842c)" d="M18.481 31.867c-.054.066-.14.066-.194 0l-1.7-2.038-1.559-1.867c-.089-.105-.027-.288.097-.288h6.518c.124 0 .187.183.097.288l-1.559 1.867-1.7 2.038z"/><path fill="var(--color6, #f99943)" d="M22.234 26.099h-.93c-.109 0-.198-.101-.198-.226s.09-.226.198-.226h.93c.109 0 .198.101.198.226s-.089.226-.198.226zm.618 0h-.132c-.109 0-.198-.101-.198-.226s.089-.226.198-.226h.132c.109 0 .198.101.198.226s-.089.226-.198.226zm-4.535.712H17.22c-.129 0-.234-.117-.234-.265s.105-.264.234-.264h1.097c.128 0 .233.117.233.264s-.105.265-.233.265zm.732 0h-.156c-.129 0-.233-.117-.233-.265s.105-.264.233-.264h.156c.128 0 .233.117.233.264s-.105.265-.233.265zm-.588 3.539h-.634c-.074 0-.136-.07-.136-.152s.062-.152.136-.152h.634c.074 0 .136.07.136.152s-.058.152-.136.152zm.424 0h-.09c-.074 0-.136-.07-.136-.152s.062-.152.136-.152h.09c.074 0 .136.07.136.152s-.058.152-.136.152zm-3.73-3.765c0 .187-.132.334-.299.334h-.902c-.163 0-.299-.152-.299-.334 0-.187.132-.334.299-.334h.902c.167 0 .299.148.299.334z"/><path fill="var(--color6, #f99943)" d="M15.828 27.068c0 .187-.132.334-.299.334h-.902c-.163 0-.299-.152-.299-.334 0-.187.132-.334.299-.334h.902c.167 0 .299.148.299.334zm5.2.268c0-.144-.105-.264-.233-.264h-.712c-.128 0-.233.117-.233.264 0 .144.105.265.233.265h.712c.128 0 .233-.117.233-.265z"/><path fill="var(--color6, #f99943)" d="M21.557 26.959c0-.144-.105-.265-.233-.265h-.708c-.129 0-.234.117-.234.265 0 .144.105.264.234.264h.708c.129-.004.233-.121.233-.264zm-.288 1.287c-.155 0-.284.144-.284.319 0 .051.012.097.031.14h-.186c-.156 0-.284.144-.284.319 0 .179.128.319.284.319h.961l.922-1.104H21.27v.008zm-5.511.229h-.187a.345.345 0 00.031-.14c0-.179-.128-.319-.284-.319h-1.447l.047.058.871 1.046h.968c.156 0 .284-.144.284-.319 0-.183-.128-.327-.284-.327zm2.975-.4c0 .167-.121.299-.268.299h-1.244c-.148 0-.268-.136-.268-.299 0-.167.121-.3.268-.3h1.244c.152 0 .268.132.268.3zm-.49.474c0-.097.07-.175.156-.175h-.591c.085 0 .155.078.155.175s-.07.175-.156.175h.591c-.089 0-.155-.078-.155-.175zm1.062.44c0 .148-.105.265-.233.265h-1.474c-.128 0-.233-.117-.233-.265s.105-.265.233-.265h1.474c.128 0 .233.121.233.265z"/><path fill="var(--color7, #bc5800)" d="M29.37 21.779a.184.184 0 00-.159-.101H7.825a.184.184 0 00-.159.101.23.23 0 00-.004.208l-.001-.001 1.396 2.932a.18.18 0 00.163.109h18.597a.18.18 0 00.163-.108v-.001l1.396-2.932a.251.251 0 00-.009-.207l.001.001z"/><path fill="var(--color8, #aa5000)" d="M12.698 24.439h-1.804c-.214 0-.385-.195-.385-.436s.171-.436.385-.436h1.804c.214 0 .385.194.385.436s-.171.435-.385.435zm1.201 0h-.257c-.214 0-.385-.195-.385-.436s.171-.436.385-.436h.257c.214 0 .385.194.385.436s-.171.435-.385.435zm10.197-.833h1.649c.194 0 .354.179.354.397s-.159.397-.354.397h-1.649c-.194 0-.354-.179-.354-.397s.159-.397.354-.397zm-1.1 0h.237c.194 0 .354.179.354.397s-.159.397-.354.397h-.237c-.194 0-.354-.179-.354-.397s.159-.397.354-.397zm-3.905.109c0 .237-.171.432-.381.432h-1.069c-.21 0-.381-.194-.381-.432s.171-.431.381-.431h1.069c.21 0 .381.194.381.431z"/><path fill="var(--color8, #aa5000)" d="M20.126 24.19c0 .245-.179.447-.397.447h-1.093c-.218 0-.397-.198-.397-.447 0-.245.179-.447.397-.447h1.093c.218 0 .397.202.397.447z"/><path fill="var(--color9, #dfdfdf)" d="M29.452 22.817c0 .09-.062.159-.144.159H7.483c-.078 0-.144-.07-.144-.159v-1.793c0-.09.062-.159.144-.159h21.825c.078 0 .144.07.144.159v1.793z"/><path fill="var(--color10, #c3c3c3)" d="M29.308 20.865h-.148v1.661c0 .09-.062.159-.144.159H7.339v.136c0 .09.062.159.144.159h21.825c.078 0 .144-.07.144-.159v-1.793c0-.093-.066-.163-.144-.163z"/><path fill="var(--color11, #fff)" d="M9.419 21.806H8.407c-.121 0-.218-.109-.218-.245s.097-.245.218-.245h1.012c.121 0 .218.109.218.245s-.097.245-.218.245zm.677 0h-.144c-.121 0-.218-.109-.218-.245s.097-.245.218-.245h.144c.121 0 .218.109.218.245-.004.136-.101.245-.218.245z"/><path fill="var(--color3, #eaeaea)" d="M21.067 28.075h5.736a.781.781 0 00-.562-.586l-.005-.001a.84.84 0 00.023-.198v-.001a.808.808 0 00-1.167-.724l.005-.002a1.093 1.093 0 00-.993-.642h-.007c-.468 0-.868.294-1.024.708l-.003.008a.852.852 0 00-1.319.712c0 .043.004.082.008.121a.78.78 0 00-.691.602l-.001.005zm-11.294-.836h6.841a.928.928 0 00-.674-.699l-.006-.001a.964.964 0 00-.933-1.201.97.97 0 00-.424.097 1.31 1.31 0 00-1.19-.766h-.003a1.3 1.3 0 00-1.219.847l-.003.009a1.015 1.015 0 00-1.571.848.84.84 0 00.012.144.934.934 0 00-.828.723z"/><path fill="var(--color12, #00d7ff)" d="M18.263 20.732a8.778 8.778 0 100-17.556 8.778 8.778 0 000 17.556z"/><path fill="var(--color11, #fff)" d="M23.343 17.034A7.183 7.183 0 1013.185 6.876a7.183 7.183 0 0010.158 10.158z"/><path fill="var(--color12, #00d7ff)" d="M18.263 17.403a5.449 5.449 0 100-10.898 5.449 5.449 0 000 10.898z"/><path fill="var(--color11, #fff)" d="M21.061 14.751a3.956 3.956 0 10-5.593-5.593 3.956 3.956 0 005.592 5.593z"/><path fill="var(--color12, #00d7ff)" d="M20.354 13.051a2.36 2.36 0 00-4.175-2.205l-.006.013a2.36 2.36 0 004.175 2.205l.006-.013z"/><path fill="var(--color11, #fff)" d="M18.416 13.229a1.283 1.283 0 10-.31-2.547l.006-.001a1.283 1.283 0 10.31 2.547l-.006.001z"/><path fill="var(--color1, #ff7b00)" d="M23.319 9.734l.778-3.076 4.671-1.999-.953 2.936 2.788 1.268-4.573 2.147-2.711-1.276z"/><path fill="var(--color2, #ff9557)" d="M18.115 12.488a.604.604 0 01-.349-.323l-.002-.004a.61.61 0 01.303-.804l.004-.002 10.166-4.55a.61.61 0 01.498 1.112l-10.166 4.55a.589.589 0 01-.459.018l.004.001z"/></symbol><symbol id="icon-awardTrophy" viewBox="0 0 37 32"><path fill="var(--color3, #eaeaea)" d="M31.283 14.903h4.947a.672.672 0 00-.485-.505l-.005-.001a.646.646 0 00.019-.171v-.001a.7.7 0 00-.7-.7h-.001a.735.735 0 00-.307.07.947.947 0 00-.859-.556h-.002a.944.944 0 00-.883.612l-.002.007a.709.709 0 00-.398-.121h-.006a.737.737 0 00-.735.735c0 .035.004.07.008.105a.67.67 0 00-.59.52l-.001.004zM2.291 16.906h5.227a.707.707 0 00-.517-.533.74.74 0 00-1.043-.847l.004-.002a1 1 0 00-.91-.587h-.001a.998.998 0 00-.934.647l-.002.007a.757.757 0 00-.423-.128h-.006a.777.777 0 00-.769.891l-.001-.004a.716.716 0 00-.626.556zm28.354-14.02h6.226a.846.846 0 00-.612-.633l-.006-.001a.94.94 0 00.027-.213v-.001-.001a.878.878 0 00-.878-.878h-.001a.855.855 0 00-.385.089 1.188 1.188 0 00-2.195.069l-.003.008a.891.891 0 00-.5-.151h-.006a.928.928 0 00-.926.926c0 .043.004.089.008.132a.832.832 0 00-.749.648l-.001.006zM0 6.012h5.67a.766.766 0 00-.559-.578l-.005-.001a.84.84 0 00.023-.195v-.001a.8.8 0 00-.8-.8h-.001a.755.755 0 00-.35.082 1.081 1.081 0 00-1.996.066l-.002.007a.844.844 0 00-.461-.136h-.002-.001a.842.842 0 00-.843.843V5.3c0 .039.004.082.008.121a.755.755 0 00-.68.586L0 6.012zM.552 30.49h4.352a.59.59 0 00-.428-.442l-.004-.001a.616.616 0 00-.594-.766.614.614 0 00-.268.062.832.832 0 00-.756-.486h-.002-.001a.827.827 0 00-.775.539l-.002.006a.634.634 0 00-.351-.105h-.004a.644.644 0 00-.644.644v.002a.73.73 0 00.008.093.59.59 0 00-.528.451l-.001.004zM12.289 2.073h5.518a.753.753 0 00-.543-.563l-.005-.001a.778.778 0 00-.754-.969h-.001a.783.783 0 00-.342.078 1.053 1.053 0 00-1.946.062l-.002.007a.805.805 0 00-.45-.136h-.001-.001a.82.82 0 00-.812.942l-.001-.004a.743.743 0 00-.661.583zm20.53 27.122h4.352a.591.591 0 00-.427-.442l-.004-.001a.615.615 0 00-.595-.766.614.614 0 00-.268.062.832.832 0 00-.756-.486h-.003a.83.83 0 00-.776.539l-.002.006a.635.635 0 00-.352-.105h-.002-.001a.644.644 0 00-.644.644v.001a.73.73 0 00.008.093.576.576 0 00-.528.451l-.001.004z"/><path fill="var(--color4, #d67412)" d="M19.083 30.525c-.33.214-.801.214-1.132 0l-8.673-5.608c-.653-.42-.276-1.26.564-1.26h17.345c.84 0 1.217.836.564 1.26l-8.669 5.608z"/><path fill="var(--color5, #fc842c)" d="M16.054 30.373c-.062.074-.159.074-.222 0l-1.913-2.302-1.758-2.108c-.097-.121-.031-.323.109-.323h7.358c.14 0 .21.206.109.323l-1.758 2.108-1.925 2.302z"/><path fill="var(--color5, #fc842c)" d="M20.818 30.521a.149.149 0 01-.241 0l-2.116-2.536-1.937-2.326c-.109-.132-.031-.358.121-.358h8.105c.156 0 .23.226.121.358l-1.937 2.326-2.116 2.536z"/><path fill="var(--color5, #fc842c)" d="M18.481 31.867c-.054.066-.14.066-.194 0l-1.7-2.038-1.559-1.867c-.089-.105-.027-.288.097-.288h6.518c.124 0 .187.183.097.288l-1.559 1.867-1.7 2.038z"/><path fill="var(--color6, #f99943)" d="M22.234 26.099h-.93c-.109 0-.198-.101-.198-.226s.09-.226.198-.226h.93c.109 0 .198.101.198.226s-.089.226-.198.226zm.618 0h-.132c-.109 0-.198-.101-.198-.226s.089-.226.198-.226h.132c.109 0 .198.101.198.226s-.089.226-.198.226zm-4.535.712H17.22c-.129 0-.234-.117-.234-.265s.105-.264.234-.264h1.097c.128 0 .233.117.233.264s-.105.265-.233.265zm.732 0h-.156c-.129 0-.233-.117-.233-.265s.105-.264.233-.264h.156c.128 0 .233.117.233.264s-.105.265-.233.265zm-.588 3.539h-.634c-.074 0-.136-.07-.136-.152s.062-.152.136-.152h.634c.074 0 .136.07.136.152s-.058.152-.136.152zm.424 0h-.09c-.074 0-.136-.07-.136-.152s.062-.152.136-.152h.09c.074 0 .136.07.136.152s-.058.152-.136.152zm-3.73-3.765c0 .187-.132.334-.299.334h-.902c-.163 0-.299-.152-.299-.334 0-.187.132-.334.299-.334h.902c.167 0 .299.148.299.334z"/><path fill="var(--color6, #f99943)" d="M15.828 27.068c0 .187-.132.334-.299.334h-.902c-.163 0-.299-.152-.299-.334 0-.187.132-.334.299-.334h.902c.167 0 .299.148.299.334zm5.2.268c0-.144-.105-.264-.233-.264h-.712c-.128 0-.233.117-.233.264 0 .144.105.265.233.265h.712c.128 0 .233-.117.233-.265z"/><path fill="var(--color6, #f99943)" d="M21.557 26.959c0-.144-.105-.265-.233-.265h-.708c-.129 0-.234.117-.234.265 0 .144.105.264.234.264h.708c.129-.004.233-.121.233-.264zm-.288 1.287c-.155 0-.284.144-.284.319 0 .051.012.097.031.14h-.186c-.156 0-.284.144-.284.319 0 .179.128.319.284.319h.961l.922-1.104H21.27v.008zm-5.511.229h-.187a.345.345 0 00.031-.14c0-.179-.128-.319-.284-.319h-1.447l.047.058.871 1.046h.968c.156 0 .284-.144.284-.319 0-.183-.128-.327-.284-.327zm2.975-.4c0 .167-.121.299-.268.299h-1.244c-.148 0-.268-.136-.268-.299 0-.167.121-.3.268-.3h1.244c.152 0 .268.132.268.3zm-.49.474c0-.097.07-.175.156-.175h-.591c.085 0 .155.078.155.175s-.07.175-.156.175h.591c-.089 0-.155-.078-.155-.175zm1.062.44c0 .148-.105.265-.233.265h-1.474c-.128 0-.233-.117-.233-.265s.105-.265.233-.265h1.474c.128 0 .233.121.233.265z"/><path fill="var(--color7, #bc5800)" d="M29.37 21.779a.184.184 0 00-.159-.101H7.825a.184.184 0 00-.159.101.23.23 0 00-.004.208l-.001-.001 1.396 2.932a.18.18 0 00.163.109h18.597a.18.18 0 00.163-.108v-.001l1.396-2.932a.251.251 0 00-.009-.207l.001.001z"/><path fill="var(--color8, #aa5000)" d="M12.698 24.439h-1.804c-.214 0-.385-.195-.385-.436s.171-.436.385-.436h1.804c.214 0 .385.194.385.436s-.171.435-.385.435zm1.201 0h-.257c-.214 0-.385-.195-.385-.436s.171-.436.385-.436h.257c.214 0 .385.194.385.436s-.171.435-.385.435zm10.197-.833h1.649c.194 0 .354.179.354.397s-.159.397-.354.397h-1.649c-.194 0-.354-.179-.354-.397s.159-.397.354-.397zm-1.1 0h.237c.194 0 .354.179.354.397s-.159.397-.354.397h-.237c-.194 0-.354-.179-.354-.397s.159-.397.354-.397zm-3.905.109c0 .237-.171.432-.381.432h-1.069c-.21 0-.381-.194-.381-.432s.171-.431.381-.431h1.069c.21 0 .381.194.381.431z"/><path fill="var(--color8, #aa5000)" d="M20.126 24.19c0 .245-.179.447-.397.447h-1.093c-.218 0-.397-.198-.397-.447 0-.245.179-.447.397-.447h1.093c.218 0 .397.202.397.447z"/><path fill="var(--color9, #dfdfdf)" d="M29.452 22.817c0 .09-.062.159-.144.159H7.483c-.078 0-.144-.07-.144-.159v-1.793c0-.09.062-.159.144-.159h21.825c.078 0 .144.07.144.159v1.793z"/><path fill="var(--color10, #c3c3c3)" d="M29.308 20.865h-.148v1.661c0 .09-.062.159-.144.159H7.339v.136c0 .09.062.159.144.159h21.825c.078 0 .144-.07.144-.159v-1.793c0-.093-.066-.163-.144-.163z"/><path fill="var(--color11, #fff)" d="M9.419 21.806H8.407c-.121 0-.218-.109-.218-.245s.097-.245.218-.245h1.012c.121 0 .218.109.218.245s-.097.245-.218.245zm.677 0h-.144c-.121 0-.218-.109-.218-.245s.097-.245.218-.245h.144c.121 0 .218.109.218.245-.004.136-.101.245-.218.245z"/><path fill="var(--color12, #00d7ff)" d="M19.356 17.516h-1.875l-.046-6.258 1.874.004.046 6.254z"/><path fill="var(--color12, #00d7ff)" d="M18.372 16.299L15.3 19.601l6.191.012-3.119-3.314-3.072 3.302 6.191.012-3.119-3.314zm-4.158-4.838c-.241-.015-5.892-.408-5.919-4.562-.008-1.046.284-1.894.867-2.524 1.338-1.451 3.749-1.135 3.854-1.12l-.105 1.209c-.019-.004-2.069-.265-3.072.821-.362.397-.537.922-.533 1.614.02 2.998 4.904 3.341 4.951 3.341l-.043 1.221zm8.424.012c.241-.015 5.884-.389 5.857-4.542-.008-1.046-.311-1.898-.902-2.528-1.357-1.454-3.765-1.147-3.87-1.135l.121 1.213c.019-.004 2.065-.261 3.084.832.37.397.552.926.556 1.618.019 2.998-4.857 3.325-4.904 3.325l.058 1.217z"/><path fill="var(--color12, #00d7ff)" d="M11.508 1.151a.402.402 0 00-.401.385c-.008.229-.008.463-.008.696.046 6.942 3.348 12.573 7.377 12.581s7.257-5.615 7.21-12.557c0-.237-.008-.471-.015-.7a.396.396 0 00-.395-.381h-.002l-13.767-.023z"/><path fill="var(--color11, #fff)" d="M13.822 9.551h-.002a.474.474 0 01-.433-.281l-.001-.003c-.634-1.458-1.019-3.173-1.116-4.966l-.001-.027c0-.252.198-.458.447-.471h.001l.027-.001c.252 0 .458.198.471.447v.001c.089 1.68.451 3.286 1.038 4.644a.472.472 0 01-.245.622.494.494 0 01-.184.035h-.003zm-1.093-5.993h-.012a.47.47 0 01-.463-.471v-.012.001l.012-.408a.48.48 0 01.479-.455h.016-.001a.48.48 0 01.455.479v.016-.001a6.447 6.447 0 00-.012.384v.001a.478.478 0 01-.474.467zm2.356 8.249l.023.012 1.544-.972.253 1.812.019.008 2.287-4.896-1.843-.856-2.283 4.892z"/><path fill="var(--color11, #fff)" d="M21.705 11.807l-.023.012-1.548-.972-.249 1.812-.023.008-2.283-4.896 1.843-.856 2.283 4.892z"/><path fill="var(--color11, #fff)" d="M20.734 8.73a3.311 3.311 0 00-4.681-4.681 3.309 3.309 0 104.681 4.68z"/><path fill="var(--color12, #00d7ff)" d="M21.082 6.39a2.688 2.688 0 11-2.687-2.687 2.692 2.692 0 012.687 2.687z"/><path fill="var(--color11, #fff)" d="M18.901 8.054h-.731V5.615h-.28v-.486c.105 0 .194-.046.268-.136s.109-.179.109-.268h.63v3.329h.004z"/><path fill="var(--color12, #00d7ff)" d="M22.284 20.791c0 .039-.031.074-.07.074h-7.638c-.039 0-.07-.031-.07-.074v-1.135c0-.039.031-.074.07-.074h7.642c.039 0 .07.031.07.074v1.135h-.004z"/><path fill="var(--color3, #eaeaea)" d="M21.067 28.075h5.736a.781.781 0 00-.562-.586l-.005-.001a.84.84 0 00.023-.198v-.001a.808.808 0 00-1.167-.724l.005-.002a1.093 1.093 0 00-.993-.642h-.007c-.468 0-.868.294-1.024.708l-.003.008a.852.852 0 00-1.319.712c0 .043.004.082.008.121a.78.78 0 00-.691.602l-.001.005zm-11.294-.836h6.841a.928.928 0 00-.674-.699l-.006-.001a.964.964 0 00-.933-1.201.97.97 0 00-.424.097 1.31 1.31 0 00-1.19-.766h-.003a1.3 1.3 0 00-1.219.847l-.003.009a1.015 1.015 0 00-1.571.848.84.84 0 00.012.144.934.934 0 00-.828.723z"/></symbol><symbol id="icon-base" viewBox="0 0 63 32"><path fill="var(--color4, #d67412)" d="M33.417 27.843c-.931.603-2.257.603-3.189 0L5.787 12.039c-1.841-1.184-.778-3.551 1.589-3.551h48.881c2.367 0 3.431 2.356 1.589 3.551l-24.43 15.804z"/><path fill="var(--color5, #fc842c)" d="M24.879 27.415c-.176.208-.449.208-.625 0l-5.392-6.488-4.953-5.94c-.274-.34-.087-.91.307-.91h20.736c.394 0 .592.581.307.909l-4.954 5.941-5.425 6.488z"/><path fill="var(--color5, #fc842c)" d="M38.305 27.832a.421.421 0 01-.68 0l-5.962-7.146-5.458-6.554c-.307-.372-.087-1.008.34-1.008h22.841c.439 0 .647.636.34 1.008l-5.458 6.554-5.962 7.146z"/><path fill="var(--color5, #fc842c)" d="M31.718 31.624c-.153.186-.394.186-.548 0l-4.79-5.743-4.395-5.26c-.252-.296-.076-.812.274-.812h18.369c.351 0 .526.516.274.812l-4.395 5.26-4.79 5.743z"/><path fill="var(--color6, #f99943)" d="M42.295 15.37h-2.62c-.307 0-.559-.285-.559-.636s.252-.636.559-.636h2.62c.307 0 .559.285.559.636s-.252.636-.559.636zm1.741 0h-.372c-.307 0-.559-.285-.559-.636s.252-.636.559-.636h.373c.307 0 .559.285.559.636s-.252.636-.559.636zm-12.778 2.006h-3.091c-.362 0-.658-.329-.658-.745s.296-.745.658-.745h3.091c.361 0 .657.329.657.745s-.296.745-.658.745zm2.061 0h-.439c-.362 0-.657-.329-.657-.745s.295-.745.657-.745h.438c.362 0 .658.329.658.745s-.296.745-.657.745zm-1.656 9.974h-1.787c-.209 0-.384-.198-.384-.428s.175-.428.384-.428h1.786c.208 0 .383.197.383.428s-.164.428-.383.428zm1.195 0h-.252c-.208 0-.383-.198-.383-.428s.175-.428.383-.428h.252c.209 0 .384.197.384.428s-.164.428-.384.428zM22.347 16.74c0 .526-.372.943-.844.943H18.96c-.46 0-.844-.428-.844-.943 0-.526.372-.943.844-.943h2.543c.471 0 .844.417.844.943z"/><path fill="var(--color6, #f99943)" d="M24.243 18.1c0 .526-.372.943-.844.943h-2.543c-.46 0-.844-.428-.844-.943 0-.527.372-.943.844-.943h2.543c.471 0 .844.416.844.943zm14.654.755c0-.405-.296-.745-.657-.745h-2.007c-.361 0-.657.329-.657.745 0 .406.296.745.657.745h2.006c.361 0 .657-.329.657-.745z"/><path fill="var(--color6, #f99943)" d="M40.387 17.793c0-.406-.295-.745-.657-.745h-1.994c-.362 0-.658.329-.658.745 0 .405.296.745.658.745h1.994c.362-.011.657-.34.657-.745zm-.811 3.627c-.438 0-.8.405-.8.899 0 .142.033.273.087.394h-.525c-.439 0-.8.406-.8.899 0 .504.361.899.8.899h2.707l2.597-3.113h-4.065v.022zm-15.53.647h-.526a.927.927 0 00.087-.395c0-.504-.361-.898-.8-.898H18.73l.132.164 2.455 2.948h2.729c.439 0 .8-.406.8-.899 0-.515-.361-.921-.8-.921zm8.385-1.129c0 .471-.34.844-.756.844h-3.507c-.417 0-.756-.383-.756-.844 0-.471.34-.844.756-.844h3.507c.428 0 .756.372.756.844zm-1.382 1.337c0-.273.197-.493.439-.493h-1.665c.24 0 .438.22.438.493s-.197.493-.439.493h1.665c-.252 0-.438-.218-.438-.493zm2.992 1.238c0 .417-.296.745-.657.745h-4.155c-.361 0-.657-.329-.657-.745s.296-.745.657-.745h4.154c.361 0 .657.34.657.745z"/><path fill="var(--color7, #bc5800)" d="M62.406 3.194a.52.52 0 00-.449-.285H1.688a.518.518 0 00-.449.285.636.636 0 00-.009.584l-.002-.004 3.935 8.264a.506.506 0 00.46.307h52.41a.513.513 0 00.459-.304l.001-.003 3.935-8.264a.712.712 0 00-.024-.585l.002.004z"/><path fill="var(--color8, #aa5000)" d="M15.42 10.691h-5.085c-.603 0-1.085-.548-1.085-1.228s.482-1.228 1.085-1.228h5.085c.604 0 1.085.548 1.085 1.228s-.482 1.227-1.085 1.227zm3.387 0h-.724c-.603 0-1.085-.548-1.085-1.228s.482-1.228 1.085-1.228h.724c.603 0 1.085.548 1.085 1.228s-.482 1.227-1.085 1.227zm28.737-2.346h4.647c.548 0 .997.505.997 1.118s-.449 1.119-.997 1.119h-4.647c-.548 0-.997-.505-.997-1.118s.449-1.119.997-1.119zm-3.102 0h.669c.548 0 .997.505.997 1.118s-.449 1.119-.997 1.119h-.669c-.548 0-.996-.505-.996-1.118s.449-1.119.996-1.119zm-11.003.307c0 .669-.482 1.217-1.074 1.217h-3.014c-.592 0-1.074-.548-1.074-1.217s.482-1.216 1.074-1.216h3.014c.592 0 1.074.548 1.074 1.216z"/><path fill="var(--color8, #aa5000)" d="M36.354 9.989c0 .691-.505 1.26-1.118 1.26h-3.08c-.614 0-1.118-.559-1.118-1.26 0-.691.504-1.26 1.118-1.26h3.08c.613 0 1.118.57 1.118 1.26z"/><path fill="var(--color9, #dfdfdf)" d="M62.636 6.12c0 .252-.175.449-.405.449H.724c-.22 0-.406-.197-.406-.449V1.068c0-.252.175-.449.406-.449h61.507c.219 0 .406.197.406.449V6.12z"/><path fill="var(--color10, #c3c3c3)" d="M62.231.618h-.417v4.68c0 .252-.175.449-.405.449H.318v.383c0 .252.175.449.406.449h61.507c.219 0 .406-.197.406-.449V1.078c0-.263-.187-.46-.406-.46z"/><path fill="var(--color11, #fff)" d="M6.182 3.271H3.331c-.34 0-.614-.307-.614-.691s.274-.69.614-.69h2.851c.34 0 .614.307.614.691s-.274.69-.614.69zm1.907 0h-.406c-.34 0-.614-.307-.614-.691s.274-.69.614-.69h.406c.34 0 .614.307.614.691-.012.383-.285.69-.614.69z"/></symbol><symbol id="icon-cloud" viewBox="0 0 78 32"><path fill="var(--color3, #eaeaea)" d="M0 29.504h78.123c-.882-3.934-3.872-6.995-7.696-7.967l-.073-.016c.213-.857.32-1.771.32-2.681v-.014c0-6.087-4.935-11.022-11.022-11.022h-.015.001c-1.714 0-3.378.373-4.821 1.124C52.406 3.743 47.247.21 41.262.196h-.002-.001c-6.382 0-11.827 4.011-13.952 9.65l-.034.103a11.61 11.61 0 00-6.362-1.877h-.017.001-.011c-6.415 0-11.616 5.201-11.616 11.616v.011-.001c0 .537.053 1.127.107 1.66a10.391 10.391 0 00-9.36 8.077l-.013.069z"/></symbol><symbol id="icon-target" viewBox="0 0 35 32"><path fill="var(--color12, #00d7ff)" d="M15.907 29.735c7.514 0 13.605-6.091 13.605-13.605S23.421 2.525 15.907 2.525 2.302 8.616 2.302 16.13s6.092 13.605 13.605 13.605z"/><path fill="var(--color11, #fff)" d="M23.782 24.002c4.348-4.348 4.348-11.397 0-15.745s-11.398-4.348-15.745 0c-4.348 4.348-4.348 11.398 0 15.746s11.397 4.348 15.745 0z"/><path fill="var(--color12, #00d7ff)" d="M15.907 24.575a8.445 8.445 0 100-16.89 8.445 8.445 0 000 16.89z"/><path fill="var(--color11, #fff)" d="M20.244 20.464a6.13 6.13 0 10-8.67-8.67 6.13 6.13 0 008.67 8.67z"/><path fill="var(--color12, #00d7ff)" d="M19.149 17.829a3.659 3.659 0 00-6.471-3.418l-.01.02a3.659 3.659 0 006.472 3.418l.01-.02z"/><path fill="var(--color11, #fff)" d="M16.145 18.106a1.989 1.989 0 10-.48-3.949l.01-.001a1.989 1.989 0 10.48 3.949l-.01.001z"/></symbol><symbol id="icon-trophy" viewBox="0 0 33 32"><path fill="var(--color12, #00d7ff)" d="M17.871 26.545h-3.019l-.075-10.077 3.018.006.075 10.071z"/><path fill="var(--color12, #00d7ff)" d="M16.287 24.585l-4.948 5.317 9.97.019-5.023-5.336-4.948 5.317 9.97.019-5.023-5.336zm-6.695-7.791c-.388-.025-9.488-.657-9.531-7.346-.012-1.685.457-3.05 1.396-4.064C3.612 3.048 7.495 3.555 7.664 3.58l-.169 1.947c-.031-.006-3.332-.426-4.948 1.322-.583.639-.864 1.484-.858 2.599.032 4.829 7.897 5.38 7.973 5.38l-.069 1.967zm13.565.019c.388-.025 9.475-.626 9.432-7.315-.012-1.684-.501-3.056-1.453-4.071-2.186-2.342-6.063-1.848-6.232-1.829l.195 1.954c.031-.006 3.326-.42 4.966 1.34.595.639.889 1.491.896 2.606.031 4.828-7.822 5.354-7.897 5.354l.094 1.96z"/><path fill="var(--color12, #00d7ff)" d="M5.233.191a.647.647 0 00-.645.62c-.012.369-.012.745-.012 1.121.075 11.179 5.392 20.248 11.88 20.26S28.142 13.149 28.067 1.97c0-.382-.012-.758-.025-1.127a.637.637 0 00-.636-.614h-.003L5.233.192z"/><path fill="var(--color11, #fff)" d="M8.959 13.719h-.002a.763.763 0 01-.697-.452l-.002-.005c-1.021-2.348-1.641-5.11-1.797-7.998l-.001-.043a.76.76 0 01.72-.758h.002l.044-.001a.76.76 0 01.758.719v.002c.144 2.705.726 5.292 1.672 7.478a.76.76 0 01-.395 1.002.784.784 0 01-.296.057H8.96zM7.2 4.068h-.019a.759.759 0 01-.746-.758v-.02.001l.019-.657a.772.772 0 01.771-.733h.025-.001a.772.772 0 01.733.771v.026-.001c-.012.219-.019.42-.019.62a.768.768 0 01-.764.751zm3.795 13.283l.037.019 2.486-1.566.407 2.919.031.012 3.682-7.885-2.969-1.378-3.676 7.879z"/><path fill="var(--color11, #fff)" d="M21.654 17.351l-.037.019-2.493-1.566-.401 2.919-.037.012-3.676-7.885 2.969-1.378 3.676 7.879z"/><path fill="var(--color11, #fff)" d="M20.091 12.397a5.33 5.33 0 10-7.537-7.536 5.33 5.33 0 007.537 7.536z"/><path fill="var(--color12, #00d7ff)" d="M20.652 8.628a4.328 4.328 0 11-4.327-4.327 4.336 4.336 0 014.327 4.327z"/><path fill="var(--color11, #fff)" d="M17.139 11.308h-1.177V7.381h-.451v-.783c.169 0 .313-.075.432-.219s.175-.288.175-.432h1.015v5.361h.006z"/><path fill="var(--color12, #00d7ff)" d="M22.587 31.819c0 .062-.05.119-.112.119H10.174c-.062 0-.113-.05-.113-.119V29.99c0-.063.05-.119.113-.119H22.48c.063 0 .113.05.113.119v1.829h-.006z"/></symbol></defs></svg>