<svg aria-hidden="true" style="position:absolute;width:0;height:0" xmlns="http://www.w3.org/2000/svg" overflow="hidden"><defs><symbol id="icon-trophy" viewBox="0 0 14 14"><path fill="#00D7FF" d="M13.59 1.01h-1.797c.007-.199.01-.399.01-.6a.41.41 0 00-.41-.41H2.607a.41.41 0 00-.41.41c0 .201.003.401.01.6H.41a.41.41 0 00-.41.41c0 1.838.48 3.572 1.352 4.883.863 1.296 2.01 2.039 3.251 2.111.281.306.579.556.889.746v1.823h-.689a1.51 1.51 0 00-1.508 1.509v.688h-.03a.41.41 0 000 .82h7.47a.41.41 0 100-.82h-.03v-.688a1.51 1.51 0 00-1.508-1.509h-.688V9.16c.31-.19.606-.44.888-.746 1.24-.072 2.388-.815 3.25-2.111C13.52 4.993 14 3.258 14 1.421a.41.41 0 00-.41-.41zM2.035 5.85C1.316 4.767.893 3.354.83 1.83h1.424c.147 1.872.587 3.602 1.274 4.976.11.218.223.425.342.62-.682-.258-1.313-.797-1.834-1.578zm9.93 0c-.52.781-1.152 1.32-1.834 1.578.119-.195.233-.402.342-.62.687-1.374 1.126-3.104 1.274-4.976h1.424c-.064 1.523-.487 2.936-1.206 4.018z"/></symbol><symbol id="icon-arrow-right" viewBox="0 0 32 32"><path d="M21.548 27.085a1.119 1.119 0 01-1.613 0 1.17 1.17 0 010-1.622l8.177-8.307H1.128c-.629-.001-1.129-.509-1.129-1.148s.5-1.163 1.129-1.163h26.984l-8.177-8.291c-.436-.458-.436-1.196 0-1.638a1.119 1.119 0 011.613 0l10.113 10.273c.451.443.451 1.18 0 1.622L21.548 27.085z"/></symbol><symbol id="icon-award" viewBox="0 0 32 32"><path fill="var(--color2, #eaeaea)" d="M26.753 15.062h4.23a.571.571 0 00-.419-.432.599.599 0 00-.845-.685.806.806 0 00-1.493.053.63.63 0 00-.968.616.572.572 0 00-.505.449zM1.959 16.774h4.47a.607.607 0 00-.442-.456.632.632 0 00-.888-.725.853.853 0 00-1.58.057.665.665 0 00-1.024.648.612.612 0 00-.535.476zM26.207 4.785h5.325a.72.72 0 00-.529-.542.751.751 0 00-1.058-.859 1.014 1.014 0 00-1.879.066.772.772 0 00-.432-.13.794.794 0 00-.785.905.712.712 0 00-.642.559zM0 7.459h4.849a.654.654 0 00-.482-.496.684.684 0 00-.964-.781.926.926 0 00-1.709.063.722.722 0 00-1.111.709.643.643 0 00-.582.506zM.472 28.391h3.722a.504.504 0 00-.369-.379.526.526 0 00-.737-.603.711.711 0 00-1.314.05.55.55 0 00-.848.542.503.503 0 00-.452.389zM10.509 4.09h4.719a.641.641 0 00-.469-.482.665.665 0 00-.938-.761.901.901 0 00-1.666.06.702.702 0 00-1.081.686.635.635 0 00-.565.499zM28.066 27.284h3.721a.504.504 0 00-.369-.379.526.526 0 00-.738-.602.711.711 0 00-1.314.049.554.554 0 00-.855.462.54.54 0 00.007.08.491.491 0 00-.452.389z"/><path fill="var(--color3, #d67412)" d="M16.32 28.421a.922.922 0 01-.968 0l-7.416-4.796c-.559-.359-.236-1.078.482-1.078h14.833c.718 0 1.041.715.482 1.078l-7.413 4.796z"/><path fill="var(--color4, #fc842c)" d="M13.729 28.292c-.053.063-.136.063-.19 0l-1.636-1.969L10.4 24.52c-.083-.103-.027-.276.093-.276h6.292c.12 0 .18.176.093.276l-1.503 1.803-1.646 1.969z"/><path fill="var(--color4, #fc842c)" d="M17.803 28.418c-.057.07-.15.07-.206 0l-1.809-2.169-1.656-1.989c-.093-.113-.027-.306.103-.306h6.931c.133 0 .196.193.103.306l-1.656 1.989-1.809 2.169z"/><path fill="var(--color4, #fc842c)" d="M15.804 29.569c-.047.056-.12.056-.166 0l-1.453-1.743-1.334-1.596c-.076-.09-.023-.246.083-.246h5.574c.106 0 .16.156.083.246l-1.334 1.596-1.453 1.743z"/><path fill="var(--color5, #f99943)" d="M19.013 24.636h-.795c-.093 0-.17-.086-.17-.193s.076-.193.17-.193h.795c.093 0 .17.086.17.193s-.076.193-.17.193zM19.542 24.636h-.113c-.093 0-.17-.086-.17-.193s.076-.193.17-.193h.113c.093 0 .17.086.17.193s-.076.193-.17.193zM15.664 25.245h-.938c-.11 0-.2-.1-.2-.226s.09-.226.2-.226h.938c.11 0 .2.1.2.226s-.09.226-.2.226zM16.29 25.245h-.133c-.11 0-.2-.1-.2-.226s.09-.226.2-.226h.133c.11 0 .2.1.2.226s-.09.226-.2.226zM15.787 28.272h-.542c-.063 0-.116-.06-.116-.13s.053-.13.116-.13h.542c.063 0 .116.06.116.13s-.05.13-.116.13zM16.15 28.272h-.076c-.063 0-.116-.06-.116-.13s.053-.13.116-.13h.076c.063 0 .116.06.116.13s-.05.13-.116.13zM12.961 25.052c0 .16-.113.286-.256.286h-.772c-.14 0-.256-.13-.256-.286 0-.16.113-.286.256-.286h.772c.143 0 .256.126.256.286z"/><path fill="var(--color5, #f99943)" d="M13.536 25.465c0 .16-.113.286-.256.286h-.772c-.14 0-.256-.13-.256-.286 0-.16.113-.286.256-.286h.772c.143 0 .256.126.256.286zM17.982 25.694c0-.123-.09-.226-.2-.226h-.609c-.11 0-.2.1-.2.226 0 .123.09.226.2.226h.609c.11 0 .2-.1.2-.226z"/><path fill="var(--color5, #f99943)" d="M18.435 25.372c0-.123-.09-.226-.2-.226h-.605c-.11 0-.2.1-.2.226 0 .123.09.226.2.226h.605c.11-.003.2-.103.2-.226zM18.189 26.472c-.133 0-.243.123-.243.273 0 .043.01.083.027.12h-.16c-.133 0-.243.123-.243.273 0 .153.11.273.243.273h.821l.788-.944h-1.234v.007zM13.476 26.669h-.16a.285.285 0 00.027-.12c0-.153-.11-.273-.243-.273h-1.237l.04.05.745.895h.828c.133 0 .243-.123.243-.273 0-.156-.11-.279-.243-.279zM16.02 26.326c0 .143-.103.256-.229.256h-1.064c-.126 0-.229-.116-.229-.256 0-.143.103-.256.229-.256h1.064c.13 0 .229.113.229.256zM15.601 26.732c0-.083.06-.15.133-.15h-.506c.073 0 .133.067.133.15s-.06.15-.133.15h.506c-.076 0-.133-.066-.133-.15zM16.509 27.108c0 .126-.09.226-.2.226h-1.26c-.11 0-.2-.1-.2-.226s.09-.226.2-.226h1.26c.11 0 .2.103.2.226z"/><path fill="var(--color6, #bc5800)" d="M25.116 20.942a.158.158 0 00-.136-.086H6.692c-.057 0-.106.033-.136.086s-.03.12-.003.176l1.194 2.508c.027.06.083.093.14.093h15.904c.06 0 .113-.037.14-.093l1.194-2.508a.216.216 0 00-.007-.176z"/><path fill="var(--color7, #aa5000)" d="M10.859 23.216H9.316c-.183 0-.329-.166-.329-.372s.146-.372.329-.372h1.543c.183 0 .329.166.329.372s-.146.372-.329.372zM11.886 23.216h-.22c-.183 0-.329-.166-.329-.372s.146-.372.329-.372h.22c.183 0 .329.166.329.372s-.146.372-.329.372zM20.607 22.505h1.41c.166 0 .303.153.303.339s-.136.339-.303.339h-1.41c-.166 0-.303-.153-.303-.339s.136-.339.303-.339zM19.665 22.505h.203c.166 0 .303.153.303.339s-.136.339-.303.339h-.203c-.166 0-.303-.153-.303-.339s.136-.339.303-.339zM16.326 22.598c0 .203-.146.369-.326.369h-.915c-.18 0-.326-.166-.326-.369s.146-.369.326-.369H16c.18 0 .326.166.326.369z"/><path fill="var(--color7, #aa5000)" d="M17.211 23.004c0 .21-.153.382-.339.382h-.935c-.186 0-.339-.17-.339-.382 0-.21.153-.382.339-.382h.935c.186 0 .339.173.339.382z"/><path fill="var(--color8, #dfdfdf)" d="M25.186 21.83c0 .076-.053.136-.123.136H6.399c-.067 0-.123-.06-.123-.136v-1.533c0-.076.053-.136.123-.136h18.664c.066 0 .123.06.123.136v1.533z"/><path fill="var(--color9, #c3c3c3)" d="M25.063 20.16h-.126v1.42c0 .076-.053.136-.123.136H6.276v.116c0 .076.053.136.123.136h18.664c.066 0 .123-.06.123-.136v-1.533c0-.08-.057-.14-.123-.14z"/><path fill="var(--color10, #fff)" d="M8.055 20.965H7.19c-.103 0-.186-.093-.186-.21s.083-.21.186-.21h.865c.103 0 .186.093.186.21s-.083.21-.186.21zM8.634 20.965h-.123c-.103 0-.186-.093-.186-.21s.083-.21.186-.21h.123c.103 0 .186.093.186.21-.003.116-.086.21-.186.21z"/><path fill="var(--color2, #eaeaea)" d="M18.016 26.326h4.906a.666.666 0 00-.486-.502.691.691 0 00-.975-.791.937.937 0 00-1.733.063.728.728 0 00-1.12.712.664.664 0 00-.592.519zM8.358 25.611h5.85a.792.792 0 00-.582-.599.825.825 0 00-1.161-.945 1.118 1.118 0 00-2.066.077.868.868 0 00-1.334.848.8.8 0 00-.708.619z"/><path fill="var(--color1, #00d7ff)" d="M15.618 20.047a7.506 7.506 0 100-15.012 7.506 7.506 0 000 15.012z"/><path fill="var(--color10, #fff)" d="M19.962 16.884a6.142 6.142 0 10-8.686-8.687 6.142 6.142 0 008.686 8.687z"/><path fill="var(--color1, #00d7ff)" d="M15.618 17.2a4.66 4.66 0 100-9.318 4.66 4.66 0 000 9.318z"/><path fill="var(--color10, #fff)" d="M18.01 14.932a3.382 3.382 0 10-4.782-4.783 3.382 3.382 0 004.782 4.783z"/><path fill="var(--color1, #00d7ff)" d="M17.407 13.478a2.018 2.018 0 10-3.575-1.875 2.018 2.018 0 003.575 1.875z"/><path fill="var(--color10, #fff)" d="M15.749 13.631a1.098 1.098 0 10-.26-2.18 1.098 1.098 0 00.26 2.18z"/><path fill="var(--color11, #ff7b00)" d="M19.941 10.642l.665-2.631L24.6 6.302l-.815 2.511 2.385 1.084-3.911 1.836-2.318-1.091z"/><path fill="var(--color12, #ff9557)" d="M15.491 12.996a.521.521 0 01-.036-.967l8.694-3.891a.521.521 0 01.425.951L15.88 12.98a.51.51 0 01-.389.017z"/></symbol><symbol id="icon-calendar" viewBox="0 0 32 32"><path fill="var(--color1, #00d7ff)" d="M11.429 14.4H8.381v3.2h3.048v-3.2zm6.095 0h-3.048v3.2h3.048v-3.2zm6.095 0h-3.048v3.2h3.048v-3.2zm3.048-11.2h-1.524V0h-3.048v3.2H9.904V0H6.856v3.2H5.332C3.641 3.2 2.3 4.64 2.3 6.4l-.015 22.4c0 1.76 1.356 3.2 3.048 3.2h21.333c1.676 0 3.048-1.44 3.048-3.2V6.4c0-1.76-1.371-3.2-3.048-3.2zm0 25.6H5.334V11.2h21.333v17.6z"/></symbol><symbol id="icon-clear" viewBox="0 0 32 32"><path fill="var(--color13, #db0837)" d="M32 3.223L28.777 0 16 12.777 3.223 0 0 3.223 12.777 16 0 28.777 3.223 32 16 19.223 28.777 32 32 28.777 19.223 16 32 3.223z"/></symbol><symbol id="icon-done" viewBox="0 0 32 32"><path fill="var(--color14, #24d40c)" d="M10.182 22.652l-7.636-7.164-2.545 2.388 10.182 9.552L32.001 6.959l-2.545-2.388-19.273 18.081z"/></symbol><symbol id="icon-logout" viewBox="0 0 32 32"><path d="M26.523 15.149H9.99a1.427 1.427 0 000 2.854h16.533l-1.845 1.845a1.427 1.427 0 002.018 2.018l4.281-4.281c.033-.033.064-.068.094-.104l.02-.027c.022-.028.043-.055.063-.085l.016-.026a1.292 1.292 0 00.115-.221l.005-.014c.015-.038.03-.077.042-.117l.004-.015c.012-.039.022-.079.03-.12.002-.012.003-.025.006-.037.006-.034.012-.067.015-.102a1.35 1.35 0 00-.015-.388l-.006-.036a1.644 1.644 0 00-.076-.253l-.005-.013c-.015-.037-.033-.072-.051-.107l-.009-.019a1.326 1.326 0 00-.057-.095l-.015-.025a1.695 1.695 0 00-.063-.085l-.02-.027a1.547 1.547 0 00-.094-.104l-4.281-4.281c-.279-.279-.644-.418-1.009-.418s-.73.139-1.009.418a1.427 1.427 0 000 2.018l1.845 1.845z"/><path d="M11.673 28.25c3.895 0 7.519-1.933 9.695-5.169a1.426 1.426 0 10-2.369-1.592 8.816 8.816 0 01-7.326 3.907c-4.863 0-8.819-3.956-8.819-8.819s3.956-8.819 8.819-8.819a8.819 8.819 0 017.314 3.889 1.427 1.427 0 002.365-1.597 11.669 11.669 0 00-9.679-5.146C5.236 4.904 0 10.141 0 16.577S5.237 28.25 11.673 28.25z"/></symbol><symbol id="icon-plus" viewBox="0 0 32 32"><path fill="var(--color10, #fff)" d="M2.32 14.481h12.16V2.321a1.52 1.52 0 013.04 0v12.16h12.16a1.52 1.52 0 010 3.04H17.52v12.16a1.52 1.52 0 01-3.04 0v-12.16H2.32a1.52 1.52 0 010-3.04z"/></symbol><symbol id="icon-save" viewBox="0 0 32 32"><path fill="var(--color1, #00d7ff)" d="M24.889 0H3.556A3.555 3.555 0 000 3.556v24.889a3.555 3.555 0 003.556 3.556h24.889c1.956 0 3.556-1.6 3.556-3.556V7.112L24.89.001zm3.555 28.444H3.555V3.555h19.858l5.031 5.031v19.858zM16 16c-2.951 0-5.333 2.382-5.333 5.333s2.382 5.333 5.333 5.333 5.333-2.382 5.333-5.333A5.326 5.326 0 0016 16zM5.333 5.333h16v7.111h-16V5.333z"/></symbol><symbol id="icon-Star" viewBox="0 0 32 32"><path fill="var(--color1, #00d7ff)" d="M30.608 11.163l-8.812-.833a1.523 1.523 0 01-1.263-.934l-3.156-7.651c-.505-1.263-2.298-1.263-2.803 0l-3.131 7.651a1.49 1.49 0 01-1.263.934l-8.813.833c-1.313.126-1.843 1.768-.859 2.651l6.641 5.833c.429.379.606.934.48 1.49l-1.995 8.181c-.303 1.288 1.086 2.348 2.247 1.667l7.348-4.318a1.526 1.526 0 011.54 0l7.348 4.318c1.162.681 2.55-.354 2.247-1.667l-1.97-8.181a1.511 1.511 0 01.48-1.49l6.641-5.833c.96-.884.404-2.525-.909-2.651z"/></symbol><symbol id="icon-triangle-down" viewBox="0 0 32 32"><path fill="var(--color1, #00d7ff)" d="M16 22L2.144 10h27.713L16.001 22z"/></symbol><symbol id="icon-triangle-up" viewBox="0 0 32 32"><path fill="var(--color1, #00d7ff)" d="M16 9.333l13.857 12H2.144L16 9.333z"/></symbol></defs></svg>