<svg aria-hidden="true" style="position:absolute;width:0;height:0" xmlns="http://www.w3.org/2000/svg" overflow="hidden"><defs><symbol id="icon-trophy" viewBox="0 0 14 14"><path fill="#00D7FF" d="M13.59 1.01h-1.797c.007-.199.01-.399.01-.6a.41.41 0 00-.41-.41H2.607a.41.41 0 00-.41.41c0 .201.003.401.01.6H.41a.41.41 0 00-.41.41c0 1.838.48 3.572 1.352 4.883.863 1.296 2.01 2.039 3.251 2.111.281.306.579.556.889.746v1.823h-.689a1.51 1.51 0 00-1.508 1.509v.688h-.03a.41.41 0 000 .82h7.47a.41.41 0 100-.82h-.03v-.688a1.51 1.51 0 00-1.508-1.509h-.688V9.16c.31-.19.606-.44.888-.746 1.24-.072 2.388-.815 3.25-2.111C13.52 4.993 14 3.258 14 1.421a.41.41 0 00-.41-.41zM2.035 5.85C1.316 4.767.893 3.354.83 1.83h1.424c.147 1.872.587 3.602 1.274 4.976.11.218.223.425.342.62-.682-.258-1.313-.797-1.834-1.578zm9.93 0c-.52.781-1.152 1.32-1.834 1.578.119-.195.233-.402.342-.62.687-1.374 1.126-3.104 1.274-4.976h1.424c-.064 1.523-.487 2.936-1.206 4.018z"/></symbol><symbol id="icon-arrow-right" viewBox="0 0 32 32"><path d="M21.548 27.085a1.119 1.119 0 01-1.613 0 1.17 1.17 0 010-1.622l8.177-8.307H1.128c-.629-.001-1.129-.509-1.129-1.148s.5-1.163 1.129-1.163h26.984l-8.177-8.291c-.436-.458-.436-1.196 0-1.638a1.119 1.119 0 011.613 0l10.113 10.273c.451.443.451 1.18 0 1.622L21.548 27.085z"/></symbol><symbol id="icon-award" viewBox="0 0 32 32"><path fill="var(currentColor, #eaeaea)" d="M26.753 15.062h4.23a.571.571 0 00-.419-.432.599.599 0 00-.845-.685.806.806 0 00-1.493.053.63.63 0 00-.968.616.572.572 0 00-.505.449zM1.959 16.774h4.47a.607.607 0 00-.442-.456.632.632 0 00-.888-.725.853.853 0 00-1.58.057.665.665 0 00-1.024.648.612.612 0 00-.535.476zM26.207 4.785h5.325a.72.72 0 00-.529-.542.751.751 0 00-1.058-.859 1.014 1.014 0 00-1.879.066.772.772 0 00-.432-.13.794.794 0 00-.785.905.712.712 0 00-.642.559zM0 7.459h4.849a.654.654 0 00-.482-.496.684.684 0 00-.964-.781.926.926 0 00-1.709.063.722.722 0 00-1.111.709.643.643 0 00-.582.506zM.472 28.391h3.722a.504.504 0 00-.369-.379.526.526 0 00-.737-.603.711.711 0 00-1.314.05.55.55 0 00-.848.542.503.503 0 00-.452.389zM10.509 4.09h4.719a.641.641 0 00-.469-.482.665.665 0 00-.938-.761.901.901 0 00-1.666.06.702.702 0 00-1.081.686.635.635 0 00-.565.499zM28.066 27.284h3.721a.504.504 0 00-.369-.379.526.526 0 00-.738-.602.711.711 0 00-1.314.049.554.554 0 00-.855.462.54.54 0 00.007.08.491.491 0 00-.452.389z"/><path fill="var(currentColor, #d67412)" d="M16.32 28.421a.922.922 0 01-.968 0l-7.416-4.796c-.559-.359-.236-1.078.482-1.078h14.833c.718 0 1.041.715.482 1.078l-7.413 4.796z"/><path fill="var(currentColor, #fc842c)" d="M13.729 28.292c-.053.063-.136.063-.19 0l-1.636-1.969L10.4 24.52c-.083-.103-.027-.276.093-.276h6.292c.12 0 .18.176.093.276l-1.503 1.803-1.646 1.969z"/><path fill="var(currentColor, #fc842c)" d="M17.803 28.418c-.057.07-.15.07-.206 0l-1.809-2.169-1.656-1.989c-.093-.113-.027-.306.103-.306h6.931c.133 0 .196.193.103.306l-1.656 1.989-1.809 2.169z"/><path fill="var(currentColor, #fc842c)" d="M15.804 29.569c-.047.056-.12.056-.166 0l-1.453-1.743-1.334-1.596c-.076-.09-.023-.246.083-.246h5.574c.106 0 .16.156.083.246l-1.334 1.596-1.453 1.743z"/><path fill="var(currentColor, #f99943)" d="M19.013 24.636h-.795c-.093 0-.17-.086-.17-.193s.076-.193.17-.193h.795c.093 0 .17.086.17.193s-.076.193-.17.193zM19.542 24.636h-.113c-.093 0-.17-.086-.17-.193s.076-.193.17-.193h.113c.093 0 .17.086.17.193s-.076.193-.17.193zM15.664 25.245h-.938c-.11 0-.2-.1-.2-.226s.09-.226.2-.226h.938c.11 0 .2.1.2.226s-.09.226-.2.226zM16.29 25.245h-.133c-.11 0-.2-.1-.2-.226s.09-.226.2-.226h.133c.11 0 .2.1.2.226s-.09.226-.2.226zM15.787 28.272h-.542c-.063 0-.116-.06-.116-.13s.053-.13.116-.13h.542c.063 0 .116.06.116.13s-.05.13-.116.13zM16.15 28.272h-.076c-.063 0-.116-.06-.116-.13s.053-.13.116-.13h.076c.063 0 .116.06.116.13s-.05.13-.116.13zM12.961 25.052c0 .16-.113.286-.256.286h-.772c-.14 0-.256-.13-.256-.286 0-.16.113-.286.256-.286h.772c.143 0 .256.126.256.286z"/><path fill="var(currentColor, #f99943)" d="M13.536 25.465c0 .16-.113.286-.256.286h-.772c-.14 0-.256-.13-.256-.286 0-.16.113-.286.256-.286h.772c.143 0 .256.126.256.286zM17.982 25.694c0-.123-.09-.226-.2-.226h-.609c-.11 0-.2.1-.2.226 0 .123.09.226.2.226h.609c.11 0 .2-.1.2-.226z"/><path fill="var(currentColor, #f99943)" d="M18.435 25.372c0-.123-.09-.226-.2-.226h-.605c-.11 0-.2.1-.2.226 0 .123.09.226.2.226h.605c.11-.003.2-.103.2-.226zM18.189 26.472c-.133 0-.243.123-.243.273 0 .043.01.083.027.12h-.16c-.133 0-.243.123-.243.273 0 .153.11.273.243.273h.821l.788-.944h-1.234v.007zM13.476 26.669h-.16a.285.285 0 00.027-.12c0-.153-.11-.273-.243-.273h-1.237l.04.05.745.895h.828c.133 0 .243-.123.243-.273 0-.156-.11-.279-.243-.279zM16.02 26.326c0 .143-.103.256-.229.256h-1.064c-.126 0-.229-.116-.229-.256 0-.143.103-.256.229-.256h1.064c.13 0 .229.113.229.256zM15.601 26.732c0-.083.06-.15.133-.15h-.506c.073 0 .133.067.133.15s-.06.15-.133.15h.506c-.076 0-.133-.066-.133-.15zM16.509 27.108c0 .126-.09.226-.2.226h-1.26c-.11 0-.2-.1-.2-.226s.09-.226.2-.226h1.26c.11 0 .2.103.2.226z"/><path fill="var(currentColor, #bc5800)" d="M25.116 20.942a.158.158 0 00-.136-.086H6.692c-.057 0-.106.033-.136.086s-.03.12-.003.176l1.194 2.508c.027.06.083.093.14.093h15.904c.06 0 .113-.037.14-.093l1.194-2.508a.216.216 0 00-.007-.176z"/><path fill="var(currentColor, #aa5000)" d="M10.859 23.216H9.316c-.183 0-.329-.166-.329-.372s.146-.372.329-.372h1.543c.183 0 .329.166.329.372s-.146.372-.329.372zM11.886 23.216h-.22c-.183 0-.329-.166-.329-.372s.146-.372.329-.372h.22c.183 0 .329.166.329.372s-.146.372-.329.372zM20.607 22.505h1.41c.166 0 .303.153.303.339s-.136.339-.303.339h-1.41c-.166 0-.303-.153-.303-.339s.136-.339.303-.339zM19.665 22.505h.203c.166 0 .303.153.303.339s-.136.339-.303.339h-.203c-.166 0-.303-.153-.303-.339s.136-.339.303-.339zM16.326 22.598c0 .203-.146.369-.326.369h-.915c-.18 0-.326-.166-.326-.369s.146-.369.326-.369H16c.18 0 .326.166.326.369z"/><path fill="var(currentColor, #aa5000)" d="M17.211 23.004c0 .21-.153.382-.339.382h-.935c-.186 0-.339-.17-.339-.382 0-.21.153-.382.339-.382h.935c.186 0 .339.173.339.382z"/><path fill="var(currentColor, #dfdfdf)" d="M25.186 21.83c0 .076-.053.136-.123.136H6.399c-.067 0-.123-.06-.123-.136v-1.533c0-.076.053-.136.123-.136h18.664c.066 0 .123.06.123.136v1.533z"/><path fill="var(currentColor, #c3c3c3)" d="M25.063 20.16h-.126v1.42c0 .076-.053.136-.123.136H6.276v.116c0 .076.053.136.123.136h18.664c.066 0 .123-.06.123-.136v-1.533c0-.08-.057-.14-.123-.14z"/><path fill="var(currentColor, #fff)" d="M8.055 20.965H7.19c-.103 0-.186-.093-.186-.21s.083-.21.186-.21h.865c.103 0 .186.093.186.21s-.083.21-.186.21zM8.634 20.965h-.123c-.103 0-.186-.093-.186-.21s.083-.21.186-.21h.123c.103 0 .186.093.186.21-.003.116-.086.21-.186.21z"/><path fill="var(currentColor, #eaeaea)" d="M18.016 26.326h4.906a.666.666 0 00-.486-.502.691.691 0 00-.975-.791.937.937 0 00-1.733.063.728.728 0 00-1.12.712.664.664 0 00-.592.519zM8.358 25.611h5.85a.792.792 0 00-.582-.599.825.825 0 00-1.161-.945 1.118 1.118 0 00-2.066.077.868.868 0 00-1.334.848.8.8 0 00-.708.619z"/><path fill="var(currentColor, #00d7ff)" d="M15.618 20.047a7.506 7.506 0 100-15.012 7.506 7.506 0 000 15.012z"/><path fill="var(currentColor, #fff)" d="M19.962 16.884a6.142 6.142 0 10-8.686-8.687 6.142 6.142 0 008.686 8.687z"/><path fill="var(currentColor, #00d7ff)" d="M15.618 17.2a4.66 4.66 0 100-9.318 4.66 4.66 0 000 9.318z"/><path fill="var(currentColor, #fff)" d="M18.01 14.932a3.382 3.382 0 10-4.782-4.783 3.382 3.382 0 004.782 4.783z"/><path fill="var(currentColor, #00d7ff)" d="M17.407 13.478a2.018 2.018 0 10-3.575-1.875 2.018 2.018 0 003.575 1.875z"/><path fill="var(currentColor, #fff)" d="M15.749 13.631a1.098 1.098 0 10-.26-2.18 1.098 1.098 0 00.26 2.18z"/><path fill="var(currentColor, #ff7b00)" d="M19.941 10.642l.665-2.631L24.6 6.302l-.815 2.511 2.385 1.084-3.911 1.836-2.318-1.091z"/><path fill="var(currentColor, #ff9557)" d="M15.491 12.996a.521.521 0 01-.036-.967l8.694-3.891a.521.521 0 01.425.951L15.88 12.98a.51.51 0 01-.389.017z"/></symbol><symbol id="icon-calendar" viewBox="0 0 32 32"><path fill="var(currentColor, #00d7ff)" d="M11.429 14.4H8.381v3.2h3.048v-3.2zm6.095 0h-3.048v3.2h3.048v-3.2zm6.095 0h-3.048v3.2h3.048v-3.2zm3.048-11.2h-1.524V0h-3.048v3.2H9.904V0H6.856v3.2H5.332C3.641 3.2 2.3 4.64 2.3 6.4l-.015 22.4c0 1.76 1.356 3.2 3.048 3.2h21.333c1.676 0 3.048-1.44 3.048-3.2V6.4c0-1.76-1.371-3.2-3.048-3.2zm0 25.6H5.334V11.2h21.333v17.6z"/></symbol><symbol id="icon-clear" viewBox="0 0 32 32"><path fill="var(currentColor, #db0837)" d="M32 3.223L28.777 0 16 12.777 3.223 0 0 3.223 12.777 16 0 28.777 3.223 32 16 19.223 28.777 32 32 28.777 19.223 16 32 3.223z"/></symbol><symbol id="icon-done" viewBox="0 0 32 32"><path fill="var(currentColor, #24d40c)" d="M10.182 22.652l-7.636-7.164-2.545 2.388 10.182 9.552L32.001 6.959l-2.545-2.388-19.273 18.081z"/></symbol><symbol id="icon-logout" viewBox="0 0 32 32"><path d="M26.523 15.149H9.99a1.427 1.427 0 000 2.854h16.533l-1.845 1.845a1.427 1.427 0 002.018 2.018l4.281-4.281c.033-.033.064-.068.094-.104l.02-.027c.022-.028.043-.055.063-.085l.016-.026a1.292 1.292 0 00.115-.221l.005-.014c.015-.038.03-.077.042-.117l.004-.015c.012-.039.022-.079.03-.12.002-.012.003-.025.006-.037.006-.034.012-.067.015-.102a1.35 1.35 0 00-.015-.388l-.006-.036a1.644 1.644 0 00-.076-.253l-.005-.013c-.015-.037-.033-.072-.051-.107l-.009-.019a1.326 1.326 0 00-.057-.095l-.015-.025a1.695 1.695 0 00-.063-.085l-.02-.027a1.547 1.547 0 00-.094-.104l-4.281-4.281c-.279-.279-.644-.418-1.009-.418s-.73.139-1.009.418a1.427 1.427 0 000 2.018l1.845 1.845z"/><path d="M11.673 28.25c3.895 0 7.519-1.933 9.695-5.169a1.426 1.426 0 10-2.369-1.592 8.816 8.816 0 01-7.326 3.907c-4.863 0-8.819-3.956-8.819-8.819s3.956-8.819 8.819-8.819a8.819 8.819 0 017.314 3.889 1.427 1.427 0 002.365-1.597 11.669 11.669 0 00-9.679-5.146C5.236 4.904 0 10.141 0 16.577S5.237 28.25 11.673 28.25z"/></symbol><symbol id="icon-plus" viewBox="0 0 32 32"><path fill="var(currentColor, #fff)" d="M2.32 14.481h12.16V2.321a1.52 1.52 0 013.04 0v12.16h12.16a1.52 1.52 0 010 3.04H17.52v12.16a1.52 1.52 0 01-3.04 0v-12.16H2.32a1.52 1.52 0 010-3.04z"/></symbol><symbol id="icon-save" viewBox="0 0 32 32"><path fill="var(currentColor, #00d7ff)" d="M24.889 0H3.556A3.555 3.555 0 000 3.556v24.889a3.555 3.555 0 003.556 3.556h24.889c1.956 0 3.556-1.6 3.556-3.556V7.112L24.89.001zm3.555 28.444H3.555V3.555h19.858l5.031 5.031v19.858zM16 16c-2.951 0-5.333 2.382-5.333 5.333s2.382 5.333 5.333 5.333 5.333-2.382 5.333-5.333A5.326 5.326 0 0016 16zM5.333 5.333h16v7.111h-16V5.333z"/></symbol><symbol id="icon-Star" viewBox="0 0 32 32"><path fill="var(currentColor, #00d7ff)" d="M30.608 11.163l-8.812-.833a1.523 1.523 0 01-1.263-.934l-3.156-7.651c-.505-1.263-2.298-1.263-2.803 0l-3.131 7.651a1.49 1.49 0 01-1.263.934l-8.813.833c-1.313.126-1.843 1.768-.859 2.651l6.641 5.833c.429.379.606.934.48 1.49l-1.995 8.181c-.303 1.288 1.086 2.348 2.247 1.667l7.348-4.318a1.526 1.526 0 011.54 0l7.348 4.318c1.162.681 2.55-.354 2.247-1.667l-1.97-8.181a1.511 1.511 0 01.48-1.49l6.641-5.833c.96-.884.404-2.525-.909-2.651z"/></symbol><symbol id="icon-triangle-down" viewBox="0 0 32 32"><path fill="var(currentColor, #00d7ff)" d="M16 22L2.144 10h27.713L16.001 22z"/></symbol><symbol id="icon-triangle-up" viewBox="0 0 32 32"><path fill="var(currentColor, #00d7ff)" d="M16 9.333l13.857 12H2.144L16 9.333z"/></symbol><symbol id="icon-arrow" viewBox="0 0 53 32"><path fill="var(currentColor, #ff7b00)" d="M23.081 20.356L26.19 8.051 44.874.055 41.063 11.8l11.154 5.07-18.294 8.587-10.843-5.102z"/><path fill="var(currentColor, #ff9557)" d="M2.267 31.37a2.42 2.42 0 01-1.395-1.293l-.006-.015a2.44 2.44 0 011.213-3.213l.015-.006L42.76 8.642c1.228-.544 2.676 0 3.22 1.228.544 1.229 0 2.677-1.228 3.221L4.087 31.292a2.398 2.398 0 01-1.837.072l.017.005z"/></symbol><symbol id="icon-base" viewBox="0 0 63 32"><path fill="var(currentColor, #d67412)" d="M33.417 27.843c-.931.603-2.257.603-3.189 0L5.787 12.039c-1.841-1.184-.778-3.551 1.589-3.551h48.881c2.367 0 3.431 2.356 1.589 3.551l-24.43 15.804z"/><path fill="var(currentColor, #fc842c)" d="M24.879 27.415c-.176.208-.449.208-.625 0l-5.392-6.488-4.953-5.94c-.274-.34-.087-.91.307-.91h20.736c.394 0 .592.581.307.909l-4.954 5.941-5.425 6.488z"/><path fill="var(currentColor, #fc842c)" d="M38.305 27.832a.421.421 0 01-.68 0l-5.962-7.146-5.458-6.554c-.307-.372-.087-1.008.34-1.008h22.841c.439 0 .647.636.34 1.008l-5.458 6.554-5.962 7.146z"/><path fill="var(currentColor, #fc842c)" d="M31.718 31.624c-.153.186-.394.186-.548 0l-4.79-5.743-4.395-5.26c-.252-.296-.076-.812.274-.812h18.369c.351 0 .526.516.274.812l-4.395 5.26-4.79 5.743z"/><path fill="var(currentColor, #f99943)" d="M42.295 15.37h-2.62c-.307 0-.559-.285-.559-.636s.252-.636.559-.636h2.62c.307 0 .559.285.559.636s-.252.636-.559.636zm1.741 0h-.372c-.307 0-.559-.285-.559-.636s.252-.636.559-.636h.373c.307 0 .559.285.559.636s-.252.636-.559.636zm-12.778 2.006h-3.091c-.362 0-.658-.329-.658-.745s.296-.745.658-.745h3.091c.361 0 .657.329.657.745s-.296.745-.658.745zm2.061 0h-.439c-.362 0-.657-.329-.657-.745s.295-.745.657-.745h.438c.362 0 .658.329.658.745s-.296.745-.657.745zm-1.656 9.974h-1.787c-.209 0-.384-.198-.384-.428s.175-.428.384-.428h1.786c.208 0 .383.197.383.428s-.164.428-.383.428zm1.195 0h-.252c-.208 0-.383-.198-.383-.428s.175-.428.383-.428h.252c.209 0 .384.197.384.428s-.164.428-.384.428zM22.347 16.74c0 .526-.372.943-.844.943H18.96c-.46 0-.844-.428-.844-.943 0-.526.372-.943.844-.943h2.543c.471 0 .844.417.844.943z"/><path fill="var(currentColor, #f99943)" d="M24.243 18.1c0 .526-.372.943-.844.943h-2.543c-.46 0-.844-.428-.844-.943 0-.527.372-.943.844-.943h2.543c.471 0 .844.416.844.943zm14.654.755c0-.405-.296-.745-.657-.745h-2.007c-.361 0-.657.329-.657.745 0 .406.296.745.657.745h2.006c.361 0 .657-.329.657-.745z"/><path fill="var(currentColor, #f99943)" d="M40.387 17.793c0-.406-.295-.745-.657-.745h-1.994c-.362 0-.658.329-.658.745 0 .405.296.745.658.745h1.994c.362-.011.657-.34.657-.745zm-.811 3.627c-.438 0-.8.405-.8.899 0 .142.033.273.087.394h-.525c-.439 0-.8.406-.8.899 0 .504.361.899.8.899h2.707l2.597-3.113h-4.065v.022zm-15.53.647h-.526a.927.927 0 00.087-.395c0-.504-.361-.898-.8-.898H18.73l.132.164 2.455 2.948h2.729c.439 0 .8-.406.8-.899 0-.515-.361-.921-.8-.921zm8.385-1.129c0 .471-.34.844-.756.844h-3.507c-.417 0-.756-.383-.756-.844 0-.471.34-.844.756-.844h3.507c.428 0 .756.372.756.844zm-1.382 1.337c0-.273.197-.493.439-.493h-1.665c.24 0 .438.22.438.493s-.197.493-.439.493h1.665c-.252 0-.438-.218-.438-.493zm2.992 1.238c0 .417-.296.745-.657.745h-4.155c-.361 0-.657-.329-.657-.745s.296-.745.657-.745h4.154c.361 0 .657.34.657.745z"/><path fill="var(currentColor, #bc5800)" d="M62.406 3.194a.52.52 0 00-.449-.285H1.688a.518.518 0 00-.449.285.636.636 0 00-.009.584l-.002-.004 3.935 8.264a.506.506 0 00.46.307h52.41a.513.513 0 00.459-.304l.001-.003 3.935-8.264a.712.712 0 00-.024-.585l.002.004z"/><path fill="var(currentColor, #aa5000)" d="M15.42 10.691h-5.085c-.603 0-1.085-.548-1.085-1.228s.482-1.228 1.085-1.228h5.085c.604 0 1.085.548 1.085 1.228s-.482 1.227-1.085 1.227zm3.387 0h-.724c-.603 0-1.085-.548-1.085-1.228s.482-1.228 1.085-1.228h.724c.603 0 1.085.548 1.085 1.228s-.482 1.227-1.085 1.227zm28.737-2.346h4.647c.548 0 .997.505.997 1.118s-.449 1.119-.997 1.119h-4.647c-.548 0-.997-.505-.997-1.118s.449-1.119.997-1.119zm-3.102 0h.669c.548 0 .997.505.997 1.118s-.449 1.119-.997 1.119h-.669c-.548 0-.996-.505-.996-1.118s.449-1.119.996-1.119zm-11.003.307c0 .669-.482 1.217-1.074 1.217h-3.014c-.592 0-1.074-.548-1.074-1.217s.482-1.216 1.074-1.216h3.014c.592 0 1.074.548 1.074 1.216z"/><path fill="var(currentColor, #aa5000)" d="M36.354 9.989c0 .691-.505 1.26-1.118 1.26h-3.08c-.614 0-1.118-.559-1.118-1.26 0-.691.504-1.26 1.118-1.26h3.08c.613 0 1.118.57 1.118 1.26z"/><path fill="var(currentColor, #dfdfdf)" d="M62.636 6.12c0 .252-.175.449-.405.449H.724c-.22 0-.406-.197-.406-.449V1.068c0-.252.175-.449.406-.449h61.507c.219 0 .406.197.406.449V6.12z"/><path fill="var(currentColor, #c3c3c3)" d="M62.231.618h-.417v4.68c0 .252-.175.449-.405.449H.318v.383c0 .252.175.449.406.449h61.507c.219 0 .406-.197.406-.449V1.078c0-.263-.187-.46-.406-.46z"/><path fill="var(currentColor, #fff)" d="M6.182 3.271H3.331c-.34 0-.614-.307-.614-.691s.274-.69.614-.69h2.851c.34 0 .614.307.614.691s-.274.69-.614.69zm1.907 0h-.406c-.34 0-.614-.307-.614-.691s.274-.69.614-.69h.406c.34 0 .614.307.614.691-.012.383-.285.69-.614.69z"/></symbol><symbol id="icon-first" viewBox="0 0 29 32"><path d="M9.987 28.648l.061.013 2.976-3.246 1.734 4.051.059.003 2.181-12.831-4.828-.813-2.184 12.822z"/><path d="M25.364 24.428l-.047.042-4.216-1.272.577 4.369-.049.033-8.427-9.919 3.737-3.163 8.423 9.91z"/><path d="M21.148 17.899a7.972 7.972 0 00-2.985-10.873 7.973 7.973 0 102.984 10.873z"/><path fill="var(currentColor, #00d7ff)" d="M20.464 12.239a6.475 6.475 0 11-7.957-4.53c3.445-.936 7.012 1.087 7.957 4.529z"/><path d="M16.457 17.497l-1.699.466-1.555-5.665-.65.179-.31-1.129c.244-.067.422-.232.537-.488s.139-.485.081-.693l1.473-.404 2.123 7.734z"/></symbol><symbol id="icon-left-clouds" viewBox="0 0 37 32"><path fill="var(currentColor, #eaeaea)" d="M2.291 16.906h5.227a.707.707 0 00-.517-.533.74.74 0 00-1.043-.847l.004-.002a1 1 0 00-.91-.587h-.001a.998.998 0 00-.934.647l-.002.007a.757.757 0 00-.423-.128h-.006a.777.777 0 00-.769.891l-.001-.004a.716.716 0 00-.626.556zM0 6.012h5.67a.766.766 0 00-.559-.578l-.005-.001a.84.84 0 00.023-.195v-.001a.8.8 0 00-.8-.8h-.001a.755.755 0 00-.35.082 1.081 1.081 0 00-1.996.066l-.002.007a.844.844 0 00-.461-.136h-.002-.001a.842.842 0 00-.843.843V5.3c0 .039.004.082.008.121a.755.755 0 00-.68.586L0 6.012zM.552 30.49h4.352a.59.59 0 00-.428-.442l-.004-.001a.616.616 0 00-.594-.766.614.614 0 00-.268.062.832.832 0 00-.756-.486h-.002-.001a.827.827 0 00-.775.539l-.002.006a.634.634 0 00-.351-.105h-.004a.644.644 0 00-.644.644v.002a.73.73 0 00.008.093.59.59 0 00-.528.451l-.001.004zM12.289 2.073h5.518a.753.753 0 00-.543-.563l-.005-.001a.778.778 0 00-.754-.969h-.001a.783.783 0 00-.342.078 1.053 1.053 0 00-1.946.062l-.002.007a.805.805 0 00-.45-.136h-.001-.001a.82.82 0 00-.812.942l-.001-.004a.743.743 0 00-.661.583zM9.773 27.239h6.841a.928.928 0 00-.674-.699l-.006-.001a.964.964 0 00-.933-1.201.97.97 0 00-.424.097 1.31 1.31 0 00-1.19-.766h-.003a1.3 1.3 0 00-1.219.847l-.003.009a1.015 1.015 0 00-1.571.848.84.84 0 00.012.144.934.934 0 00-.828.723z"/></symbol><symbol id="icon-right-clouds" viewBox="0 0 37 32"><path fill="var(currentColor, #eaeaea)" d="M31.283 14.903h4.947a.672.672 0 00-.485-.505l-.005-.001a.646.646 0 00.019-.171v-.001a.7.7 0 00-.7-.7h-.001a.74.74 0 00-.312.072l.004-.002a.947.947 0 00-.859-.556h-.002a.943.943 0 00-.883.612l-.002.007a.717.717 0 00-.398-.121h-.007a.737.737 0 00-.735.735c0 .035.004.07.008.105a.67.67 0 00-.59.52l-.001.004zm-.638-12.017h6.226a.846.846 0 00-.612-.633l-.006-.001a.94.94 0 00.027-.213v-.001-.001a.878.878 0 00-.878-.878h-.001a.855.855 0 00-.385.089 1.188 1.188 0 00-2.195.069l-.003.008a.891.891 0 00-.5-.151h-.006a.928.928 0 00-.926.926c0 .043.004.089.008.132a.832.832 0 00-.749.648l-.001.006zm2.174 26.309h4.352a.591.591 0 00-.427-.442l-.004-.001a.615.615 0 00-.595-.766.614.614 0 00-.268.062.832.832 0 00-.756-.486h-.003a.83.83 0 00-.776.539l-.002.006a.635.635 0 00-.352-.105h-.002-.001a.644.644 0 00-.644.644v.001a.73.73 0 00.008.093.576.576 0 00-.528.451l-.001.004zm-11.752-1.12h5.736a.781.781 0 00-.562-.586l-.005-.001a.84.84 0 00.023-.198v-.001a.808.808 0 00-1.167-.724l.005-.002a1.09 1.09 0 00-.993-.642h-.007c-.468 0-.868.294-1.024.708l-.003.008a.852.852 0 00-1.319.712c0 .043.004.082.008.121a.78.78 0 00-.691.602l-.001.005z"/></symbol><symbol id="icon-target" viewBox="0 0 35 32"><path fill="var(currentColor, #00d7ff)" d="M15.907 29.735c7.514 0 13.605-6.091 13.605-13.605S23.421 2.525 15.907 2.525 2.302 8.616 2.302 16.13s6.092 13.605 13.605 13.605z"/><path fill="var(currentColor, #fff)" d="M23.782 24.002c4.348-4.348 4.348-11.397 0-15.745s-11.398-4.348-15.745 0c-4.348 4.348-4.348 11.398 0 15.746s11.397 4.348 15.745 0z"/><path fill="var(currentColor, #00d7ff)" d="M15.907 24.575a8.445 8.445 0 100-16.89 8.445 8.445 0 000 16.89z"/><path fill="var(currentColor, #fff)" d="M20.244 20.464a6.13 6.13 0 10-8.67-8.67 6.13 6.13 0 008.67 8.67z"/><path fill="var(currentColor, #00d7ff)" d="M19.149 17.829a3.659 3.659 0 00-6.471-3.418l-.01.02a3.659 3.659 0 006.472 3.418l.01-.02z"/><path fill="var(currentColor, #fff)" d="M16.145 18.106a1.989 1.989 0 10-.48-3.949l.01-.001a1.989 1.989 0 10.48 3.949l-.01.001z"/></symbol><symbol id="icon-trophy-cup" viewBox="0 0 33 32"><path fill="var(currentColor, #00d7ff)" d="M17.871 26.545h-3.019l-.075-10.077 3.018.006.075 10.071z"/><path fill="var(currentColor, #00d7ff)" d="M16.287 24.585l-4.948 5.317 9.97.019-5.023-5.336-4.948 5.317 9.97.019-5.023-5.336zm-6.695-7.791c-.388-.025-9.488-.657-9.531-7.346-.012-1.685.457-3.05 1.396-4.064C3.612 3.048 7.495 3.555 7.664 3.58l-.169 1.947c-.031-.006-3.332-.426-4.948 1.322-.583.639-.864 1.484-.858 2.599.032 4.829 7.897 5.38 7.973 5.38l-.069 1.967zm13.565.019c.388-.025 9.475-.626 9.432-7.315-.012-1.684-.501-3.056-1.453-4.071-2.186-2.342-6.063-1.848-6.232-1.829l.195 1.954c.031-.006 3.326-.42 4.966 1.34.595.639.889 1.491.896 2.606.031 4.828-7.822 5.354-7.897 5.354l.094 1.96z"/><path fill="var(currentColor, #00d7ff)" d="M5.233.191a.647.647 0 00-.645.62c-.012.369-.012.745-.012 1.121.075 11.179 5.392 20.248 11.88 20.26S28.142 13.149 28.067 1.97c0-.382-.012-.758-.025-1.127a.637.637 0 00-.636-.614h-.003L5.233.192z"/><path fill="var(currentColor, #fff)" d="M8.959 13.719h-.002a.763.763 0 01-.697-.452l-.002-.005c-1.021-2.348-1.641-5.11-1.797-7.998l-.001-.043a.76.76 0 01.72-.758h.002l.044-.001a.76.76 0 01.758.719v.002c.144 2.705.726 5.292 1.672 7.478a.76.76 0 01-.395 1.002.784.784 0 01-.296.057H8.96zM7.2 4.068h-.019a.759.759 0 01-.746-.758v-.02.001l.019-.657a.772.772 0 01.771-.733h.025-.001a.772.772 0 01.733.771v.026-.001c-.012.219-.019.42-.019.62a.768.768 0 01-.764.751z"/><path fill="var(currentColor, #00d7ff)" d="M22.587 31.819c0 .062-.05.119-.112.119H10.174c-.062 0-.113-.05-.113-.119V29.99c0-.063.05-.119.113-.119H22.48c.063 0 .113.05.113.119v1.829h-.006z"/></symbol></defs></svg>